<?xml version="1.0" encoding="UTF-8"?>
<svg id="Layer_2" data-name="Layer 2" xmlns="http://www.w3.org/2000/svg" viewBox="0 0 420.98 425.19">
  <defs>
    <style>
      .cls-1 {
        fill: #fff;
      }
    </style>
  </defs>
  <g id="Layer_1-2" data-name="Layer 1">
    <g id="FgEN5G.tif">
      <g>
        <path class="cls-1" d="M203.9,0c2.73,1.19,7.97,5.37,7.97,8.48v31.43h105.07c24.08,0,52.18,25.42,60.73,46.91,8.27,20.78,7.17,75.96,4.38,99.13-1.02,8.48-2.89,27.37-12.56,29.33-4.45.91-23.91-5.18-27.2-8.21s-3.21-6.63-2.92-11.01c.55-8.34,3.51-17.94,4.01-26.91.78-14.23,1.81-53.76-2.25-65.67-4.73-13.86-18.6-23.23-33.1-23.71l-234.06.06c-14.01,1.26-27.12,10.82-31.44,24.37-4.65,14.59-2.42,65.16.37,81.55,11.45,67.28,68.86,117.29,136.63,121.52,10.44.65,30.28-4.39,32.27,9.58,1.08,7.61,2.08,26.12-6.31,29.41-4.67,1.83-24.83,1.29-30.94.91-82.86-5.08-154.97-69.02-170.51-150.43-1.34-6.99-1.54-14.26-3.28-21.16,1.74-22.24-2.34-48.03,0-69.84,3.16-29.45,35.47-65.85,66.23-65.85h105.07V8.48c0-3.11,5.24-7.29,7.97-8.48h23.9Z"/>
        <path class="cls-1" d="M419.74,337.47c2.06,3.23,1.5,4.53-1.38,6.58-8.34,5.9-29.31,10.63-39.85,15.94-25.52,12.85-27.95,39.92-39.26,63.42-1.33,2.27-4.63,2.26-6.39.61-8.07-15.72-11.97-37.83-23.37-51.41-13.48-16.06-37.88-19.95-56.2-28.5-2.16-1.23-2.02-4.02-1.09-5.91,1.41-2.86,35.82-14.46,42.01-17.77,10.67-5.71,17.88-13.98,23.08-24.76s9.13-28.75,14.68-37.17c.83-1.26,2.29-3.11,3.89-3.11,2.13.34,3.25,2.07,4.23,3.77,6.41,11.18,9.67,28.01,16,39.84,13.14,24.52,40.84,27.29,63.65,38.48Z"/>
        <path class="cls-1" d="M123,143.92c44.48-6.05,49.74,58.99,9.6,63.48-43.34,4.85-48.75-58.16-9.6-63.48Z"/>
        <path class="cls-1" d="M250.47,143.92c44.48-6.05,49.74,58.99,9.6,63.48-43.34,4.85-48.75-58.16-9.6-63.48Z"/>
      </g>
    </g>
  </g>
</svg>