<?xml version="1.0" encoding="UTF-8"?>
<svg id="Layer_2" data-name="Layer 2" xmlns="http://www.w3.org/2000/svg" viewBox="0 0 448 447.04">
  <g id="Layer_1-2" data-name="Layer 1">
    <g id="c9ZYOT.tif">
      <g>
        <g>
          <path d="M188.12,130.21c-1.16-1.42-2.58-2.54-4.26-3.36-1.68-.82-3.68-1.23-6.01-1.23s-4.52.45-6.33,1.36-3.34,2.09-4.59,3.55c-1.25,1.47-2.22,3.14-2.91,5.04-.69,1.9-1.16,3.83-1.42,5.81h29.07c0-2.15-.3-4.2-.9-6.14-.6-1.94-1.49-3.62-2.65-5.04Z"/>
          <path d="M83.68,105.47c-4.82,0-8.27.13-10.33.39v62.52c.95.09,2.2.15,3.75.19,1.55.04,3.66.06,6.33.06,10.94,0,19.1-2.78,24.48-8.33,5.38-5.55,8.07-13.33,8.07-23.32s-2.63-17.96-7.88-23.38c-5.25-5.43-13.39-8.14-24.41-8.14Z"/>
          <path d="M263.05,38.41c-1.44-20.56-16.04-36.01-36.51-38.41L34.61.14C16.86,2.91,4.32,15.94,0,32.96v196.56c4.61,17.82,17.83,30.82,36.52,32.91l189.02.05c19.79-1.55,35.26-16.91,37.45-36.47-3.19-61.25,4.3-126.87.06-187.61ZM129.41,157.21c-2.41,5.73-5.84,10.51-10.27,14.34-4.44,3.83-9.78,6.67-16.02,8.53-6.25,1.85-13.16,2.78-20.73,2.78-3.62,0-7.71-.15-12.27-.45-4.57-.3-8.91-.92-13.05-1.87v-86.94c4.13-.95,8.53-1.55,13.18-1.81,4.65-.26,8.78-.39,12.4-.39,7.49,0,14.34.88,20.54,2.65,6.2,1.77,11.52,4.52,15.95,8.27,4.43,3.75,7.86,8.48,10.27,14.21,2.41,5.73,3.62,12.55,3.62,20.47s-1.21,14.49-3.62,20.22ZM207.24,149.97c-.04,1.08-.11,2.05-.19,2.91h-44.57c.43,5.43,2.35,9.62,5.75,12.59,3.4,2.97,8.33,4.46,14.79,4.46,3.79,0,7.25-.34,10.4-1.03,3.14-.69,5.62-1.42,7.43-2.2l2.07,12.79c-.86.43-2.05.88-3.55,1.36-1.51.47-3.23.9-5.17,1.29-1.94.39-4.03.71-6.26.97-2.24.26-4.52.39-6.85.39-5.94,0-11.11-.88-15.5-2.65-4.39-1.76-8.01-4.22-10.85-7.36-2.84-3.14-4.95-6.85-6.33-11.11-1.38-4.26-2.07-8.93-2.07-14.02,0-5.94.88-11.15,2.65-15.63,1.76-4.48,4.11-8.2,7.04-11.17,2.93-2.97,6.29-5.21,10.08-6.72,3.79-1.51,7.66-2.26,11.63-2.26,9.3,0,16.56,2.89,21.77,8.66,5.21,5.77,7.82,14.38,7.82,25.84,0,.86-.02,1.83-.07,2.91Z"/>
        </g>
        <path d="M422.68,187.44c-1.76-.68-7.85-2.82-9.18-2.82h-134.5v42.41c0,23.51-27.97,51.39-51.5,51.39h-42.5v134.2c0,1.33,2.14,7.4,2.82,9.16,5.37,13.81,16.43,21.08,30.18,25.27h197c16.94-4.25,28.74-16.03,33-32.93v-196.56c-4.2-13.72-11.48-24.75-25.32-30.11ZM316.16,366.26h-60.58v-89.52h57.48v13.82h-41.21v22.09h36.69v13.56h-36.69v26.22h44.31v13.82ZM386.95,366.26h-15.63v-35.52c0-3.62-.24-6.69-.71-9.24-.47-2.54-1.25-4.61-2.33-6.2-1.08-1.59-2.54-2.75-4.39-3.49-1.85-.73-4.11-1.1-6.78-1.1-1.98,0-4.05.13-6.2.39-2.15.26-3.75.47-4.78.65v54.51h-15.63v-65.36c3.01-.86,6.93-1.68,11.76-2.46,4.82-.77,10.16-1.16,16.02-1.16,5.51,0,10.12.75,13.82,2.26,3.7,1.51,6.65,3.62,8.85,6.33,2.2,2.71,3.75,5.99,4.65,9.82.9,3.83,1.36,8.03,1.36,12.59v37.98Z"/>
        <path d="M295.74,92.07c25.58-4.6,54.08,5.57,59.12,33.33,1.4,7.7,4.22,30.95-4.8,33.83-15.67,5.01-9.99-23.47-11.3-31.74-3.83-24.18-28.06-16.37-43.2-18.76-9.48-1.5-10.41-14.77.18-16.67Z"/>
        <path d="M98.72,287.59c14.78-3.32,9.29,23,10.37,31.14.85,6.47,5.66,13.41,11.38,16.58,9.86,5.46,20.67,1.71,31.06,2.94,10.95,1.29,12.32,15.69-1.98,17.02-30.46,2.84-55.03-8.65-57.53-41.46-.54-7.14-2.13-24.24,6.71-26.23Z"/>
      </g>
    </g>
  </g>
</svg>